<?xml version="1.0" encoding="utf-8"?><svg xmlns="http://www.w3.org/2000/svg" xmlns:xlink="http://www.w3.org/1999/xlink"><symbol viewBox="0 0 512 512" id="email" xmlns="http://www.w3.org/2000/svg"><path d="M230.9 253.371c13.369 8.913 36.827 8.914 50.199-.001l.007-.004 227.865-151.911c-7.474-21.616-28.018-37.188-52.142-37.188H55.166c-24.125 0-44.668 15.572-52.143 37.188l227.87 151.912.007.004z"/><path d="M297.746 278.328l-.007.005c-11.702 7.801-26.724 11.702-41.741 11.702-15.02 0-30.036-3.9-41.739-11.703l-.005-.003L0 135.494v257.072c0 30.417 24.747 55.163 55.166 55.163h401.666c30.418 0 55.164-24.746 55.164-55.163V135.494z"/></symbol><symbol viewBox="0 0 24 24" id="facebook" xmlns="http://www.w3.org/2000/svg"><path d="M15.997 3.985h2.191V.169C17.81.117 16.51 0 14.996 0c-3.159 0-5.323 1.987-5.323 5.639V9H6.187v4.266h3.486V24h4.274V13.267h3.345l.531-4.266h-3.877V6.062c.001-1.233.333-2.077 2.051-2.077z"/></symbol><symbol viewBox="0 0 511 511.9" id="instagram" xmlns="http://www.w3.org/2000/svg"><path d="M510.95 150.5c-1.2-27.2-5.598-45.898-11.9-62.102-6.5-17.199-16.5-32.597-29.6-45.398-12.802-13-28.302-23.102-45.302-29.5-16.296-6.3-34.898-10.7-62.097-11.898C334.648.3 325.949 0 256.449 0s-78.199.3-105.5 1.5c-27.199 1.2-45.898 5.602-62.097 11.898-17.204 6.5-32.602 16.5-45.403 29.602-13 12.8-23.097 28.3-29.5 45.3-6.3 16.302-10.699 34.9-11.898 62.098C.75 177.801.449 186.5.449 256s.301 78.2 1.5 105.5c1.2 27.2 5.602 45.898 11.903 62.102 6.5 17.199 16.597 32.597 29.597 45.398 12.801 13 28.301 23.102 45.301 29.5 16.3 6.3 34.898 10.7 62.102 11.898 27.296 1.204 36 1.5 105.5 1.5s78.199-.296 105.5-1.5c27.199-1.199 45.898-5.597 62.097-11.898a130.934 130.934 0 0074.903-74.898c6.296-16.301 10.699-34.903 11.898-62.102 1.2-27.3 1.5-36 1.5-105.5s-.102-78.2-1.3-105.5zm-46.098 209c-1.102 25-5.301 38.5-8.801 47.5-8.602 22.3-26.301 40-48.602 48.602-9 3.5-22.597 7.699-47.5 8.796-27 1.204-35.097 1.5-103.398 1.5s-76.5-.296-103.403-1.5c-25-1.097-38.5-5.296-47.5-8.796C94.551 451.5 84.45 445 76.25 436.5c-8.5-8.3-15-18.3-19.102-29.398-3.5-9-7.699-22.602-8.796-47.5-1.204-27-1.5-35.102-1.5-103.403s.296-76.5 1.5-103.398c1.097-25 5.296-38.5 8.796-47.5C61.25 94.199 67.75 84.1 76.352 75.898c8.296-8.5 18.296-15 29.398-19.097 9-3.5 22.602-7.7 47.5-8.801 27-1.2 35.102-1.5 103.398-1.5 68.403 0 76.5.3 103.403 1.5 25 1.102 38.5 5.3 47.5 8.8 11.097 4.098 21.199 10.598 29.398 19.098 8.5 8.301 15 18.301 19.102 29.403 3.5 9 7.699 22.597 8.8 47.5 1.2 27 1.5 35.097 1.5 103.398s-.3 76.301-1.5 103.301zm0 0"/><path d="M256.45 124.5c-72.598 0-131.5 58.898-131.5 131.5s58.902 131.5 131.5 131.5c72.6 0 131.5-58.898 131.5-131.5s-58.9-131.5-131.5-131.5zm0 216.8c-47.098 0-85.302-38.198-85.302-85.3s38.204-85.3 85.301-85.3c47.102 0 85.301 38.198 85.301 85.3s-38.2 85.3-85.3 85.3zm167.402-222c0 16.954-13.747 30.7-30.704 30.7-16.953 0-30.699-13.746-30.699-30.7 0-16.956 13.746-30.698 30.7-30.698 16.956 0 30.703 13.742 30.703 30.699zm0 0"/></symbol><symbol viewBox="0 0 124.63 124.63" id="location" xmlns="http://www.w3.org/2000/svg"><path d="M62.713.02V0c-.134 0-.265.008-.396.008S62.055 0 61.921 0v.02C35.144.446 13.565 22.269 13.565 49.148c0 36.221 42.526 70.601 48.752 75.486 6.227-4.884 48.752-39.266 48.752-75.486C111.069 22.269 89.491.446 62.713.02zm0 70.269c-14.011 0-25.367-11.354-25.367-25.363 0-14.013 11.356-25.369 25.367-25.369s25.368 11.356 25.368 25.369c0 14.009-11.357 25.363-25.368 25.363z"/></symbol><symbol viewBox="0 0 512 512" id="scooter" xmlns="http://www.w3.org/2000/svg"><path d="M496.761 352.176c7.89-.429 14.161-6.952 14.161-14.958 0-43.164-34.648-76.976-78.879-76.976h-14.617L399.56 175.44c17.24-7.49 29.332-24.692 29.332-44.675 0-26.842-21.811-48.68-48.621-48.68h-69.115c-8.274 0-14.982 6.716-14.982 15v18.68h-36.828c-8.274 0-14.982 6.716-14.982 15s6.708 15 14.982 15h36.828v18.68c0 8.284 6.708 15 14.982 15h6.652c-12.404 14.669-19.907 33.618-19.907 54.299v85.359a.793.793 0 01-.792.793h-60.52a.796.796 0 01-.76-.568l-16.315-55.202c13.149-3.517 22.865-15.542 22.865-29.801 0-33.857-27.511-61.401-61.326-61.401H46.066C20.666 172.923 0 193.614 0 219.046c0 23.25 17.273 42.526 39.644 45.666C15.912 285.966.947 316.842.947 351.156v46.699c0 8.284 6.708 15 14.982 15h12.963c6.978 34.84 37.766 61.17 74.587 61.17s67.609-26.33 74.587-61.17h183.27c6.978 34.84 37.766 61.17 74.587 61.17 41.948 0 76.076-34.17 76.076-76.17.001-17.124-5.675-32.943-15.238-45.679zm-18.256-29.958h-33.727a76.358 76.358 0 00-8.854-.533c-5.37 0-10.608.568-15.666 1.632v-33.075h11.786c21.942 0 40.083 13.207 46.461 31.976zM326.137 112.084h54.134c10.288 0 18.658 8.38 18.658 18.68s-8.37 18.68-18.658 18.68h-54.134zM236.59 349.895h60.52c16.959 0 30.755-13.813 30.755-30.793v-85.359c0-25.782 18.086-47.416 42.223-52.849l20.207 95.91v60.143c-14.662 11.039-25.221 27.252-28.958 45.907h-148.95c-6.997-53.818-51.439-94.083-106.909-94.083-24.735 0-46.941 8.08-64.461 21.97 14.472-27.092 43.004-45.571 75.776-45.571h71.786l18.522 62.67c3.836 12.986 15.963 22.055 29.489 22.055zM32.128 382.854c2.618-15.958 9.435-30.353 19.86-41.507 13.607-14.559 32.603-22.577 53.488-22.577 38.642 0 69.859 27.156 76.561 64.083H32.128zM46.066 235.17c-8.879 0-16.103-7.233-16.103-16.124s7.224-16.124 16.103-16.124h134.987c17.294 0 31.363 14.086 31.363 31.401-.128.617-1.116 1.025-2.955.845h-11.497c-17.901.002-151.811.002-151.898.002zm57.413 208.854c-20.183 0-37.367-13.055-43.601-31.17h87.202c-6.234 18.115-23.418 31.17-43.601 31.17zm332.445 0c-25.427 0-46.113-20.712-46.113-46.17s20.687-46.169 46.113-46.169c25.427 0 46.113 20.711 46.113 46.169s-20.687 46.17-46.113 46.17z"/><ellipse cx="435.92" cy="397.86" rx="15.08" ry="15.1"/><path d="M15.61 129.443h134.368c8.274 0 14.982-6.716 14.982-15s-6.708-15-14.982-15H15.61c-8.274 0-14.982 6.716-14.982 15s6.708 15 14.982 15zm49.772-61.467h135.526c8.274 0 14.982-6.716 14.982-15s-6.708-15-14.982-15H65.382c-8.274 0-14.982 6.716-14.982 15s6.708 15 14.982 15z"/></symbol><symbol viewBox="0 0 512 512" id="twitter" xmlns="http://www.w3.org/2000/svg"><path d="M512 97.248c-19.04 8.352-39.328 13.888-60.48 16.576 21.76-12.992 38.368-33.408 46.176-58.016-20.288 12.096-42.688 20.64-66.56 25.408C411.872 60.704 384.416 48 354.464 48c-58.112 0-104.896 47.168-104.896 104.992 0 8.32.704 16.32 2.432 23.936-87.264-4.256-164.48-46.08-216.352-109.792-9.056 15.712-14.368 33.696-14.368 53.056 0 36.352 18.72 68.576 46.624 87.232-16.864-.32-33.408-5.216-47.424-12.928v1.152c0 51.008 36.384 93.376 84.096 103.136-8.544 2.336-17.856 3.456-27.52 3.456-6.72 0-13.504-.384-19.872-1.792 13.6 41.568 52.192 72.128 98.08 73.12-35.712 27.936-81.056 44.768-130.144 44.768-8.608 0-16.864-.384-25.12-1.44C46.496 446.88 101.6 464 161.024 464c193.152 0 298.752-160 298.752-298.688 0-4.64-.16-9.12-.384-13.568 20.832-14.784 38.336-33.248 52.608-54.496z"/></symbol><symbol viewBox="-23 -21 682 682.67" id="whatsapp" xmlns="http://www.w3.org/2000/svg"><path d="M544.387 93.008C484.512 33.063 404.883.035 320.05 0 145.246 0 2.98 142.262 2.91 317.113c-.024 55.895 14.577 110.457 42.331 158.551L.25 640l168.121-44.102c46.324 25.27 98.477 38.586 151.55 38.602h.134c174.785 0 317.066-142.273 317.132-317.133.036-84.742-32.921-164.418-92.8-224.36zM320.05 580.94h-.11c-47.296-.02-93.683-12.73-134.16-36.742l-9.62-5.715-99.766 26.172 26.628-97.27-6.27-9.972c-26.386-41.969-40.32-90.476-40.296-140.281.055-145.332 118.305-263.57 263.7-263.57 70.406.023 136.59 27.476 186.355 77.3s77.156 116.051 77.133 186.485C583.582 462.69 465.34 580.94 320.05 580.94zm144.586-197.418c-7.922-3.968-46.883-23.132-54.149-25.78-7.258-2.645-12.547-3.962-17.824 3.968-5.285 7.93-20.469 25.781-25.094 31.066-4.625 5.29-9.242 5.953-17.168 1.985-7.925-3.965-33.457-12.336-63.726-39.332-23.555-21.012-39.457-46.961-44.082-54.89-4.617-7.938-.04-11.813 3.476-16.173 8.578-10.652 17.168-21.82 19.809-27.105 2.644-5.29 1.32-9.918-.664-13.883-1.977-3.965-17.824-42.969-24.426-58.84-6.437-15.445-12.965-13.36-17.832-13.601-4.617-.231-9.902-.278-15.187-.278-5.282 0-13.868 1.98-21.133 9.918-7.262 7.934-27.73 27.102-27.73 66.106s28.394 76.683 32.355 81.972c3.96 5.29 55.879 85.328 135.367 119.649 18.906 8.172 33.664 13.043 45.176 16.695 18.984 6.031 36.254 5.18 49.91 3.14 15.226-2.277 46.879-19.171 53.488-37.68 6.602-18.51 6.602-34.374 4.617-37.683-1.976-3.304-7.261-5.285-15.183-9.254zm0 0" fill-rule="evenodd"/></symbol></svg>