<?xml version="1.0" standalone="no"?>
<!DOCTYPE svg PUBLIC "-//W3C//DTD SVG 20010904//EN"
 "http://www.w3.org/TR/2001/REC-SVG-20010904/DTD/svg10.dtd">
<svg version="1.0" xmlns="http://www.w3.org/2000/svg"
 width="120.000000pt" height="120.000000pt" viewBox="0 0 120.000000 120.000000"
 preserveAspectRatio="xMidYMid meet">
<metadata>
Created by potrace 1.14, written by Peter Selinger 2001-2017
</metadata>
<g transform="translate(0.000000,120.000000) scale(0.100000,-0.100000)"
fill="#000000" stroke="none">
<path d="M352 1177 c-59 -21 -152 -75 -152 -90 0 -4 -4 -5 -10 -2 -5 3 -10 1
-10 -4 0 -10 -19 -36 -47 -66 -7 -8 -13 -20 -13 -28 0 -9 -5 -17 -10 -19 -6
-2 -12 -13 -13 -26 0 -12 -4 -22 -7 -22 -6 0 -8 -14 -12 -82 -1 -16 -6 -28
-11 -28 -5 0 -4 -6 2 -14 9 -11 9 -15 -1 -19 -11 -4 -10 -6 0 -6 7 -1 10 -6 7
-12 -8 -12 14 -69 26 -69 7 0 7 -27 0 -72 0 -4 -8 -4 -18 -1 -11 4 -14 3 -9
-5 4 -7 1 -12 -7 -12 -8 0 -27 -16 -41 -35 -23 -29 -27 -44 -25 -90 1 -30 6
-52 11 -49 4 3 8 -2 8 -10 0 -16 59 -66 77 -66 16 0 8 -67 -9 -88 -16 -18 -31
-75 -18 -67 5 3 7 -6 6 -20 0 -14 -4 -25 -8 -25 -14 0 42 -97 70 -122 l31 -27
429 -1 429 0 32 29 c17 16 31 26 31 23 1 -4 8 9 17 28 8 19 18 65 22 102 6 60
5 68 -14 82 -34 26 -26 71 17 101 52 35 68 66 68 130 0 35 -4 54 -10 50 -5 -3
-10 0 -10 7 0 14 -31 45 -65 65 -23 13 -30 83 -8 83 7 0 15 10 18 23 9 41 11
126 4 121 -4 -2 -7 4 -7 13 1 27 -10 76 -19 82 -4 3 -10 15 -11 26 -9 49 -96
142 -167 177 -80 40 -127 59 -120 48 3 -5 1 -10 -4 -10 -6 0 -11 4 -11 8 0 4
-11 9 -26 10 -17 1 -23 -2 -18 -10 5 -7 3 -8 -7 -2 -23 14 -62 17 -53 3 5 -8
3 -9 -7 -3 -23 14 -62 17 -53 3 5 -8 3 -9 -7 -3 -23 14 -62 17 -53 3 5 -9 3
-9 -7 -3 -26 17 -147 11 -207 -9z m254 -60 c3 -3 16 -2 29 3 13 5 25 6 29 3 3
-3 44 -6 91 -7 64 -1 89 -5 95 -16 6 -8 10 -11 10 -7 0 28 150 -100 150 -129
0 -7 5 -14 11 -16 5 -2 12 -12 14 -23 2 -11 4 -20 5 -20 4 0 11 -44 15 -87 2
-32 0 -48 -8 -49 -7 0 -211 -1 -454 -2 -409 -2 -442 -1 -446 15 -5 19 1 85 10
108 4 8 7 17 7 20 4 23 41 88 47 84 5 -3 9 -1 9 4 0 14 47 62 54 55 3 -4 6 -2
6 4 0 24 104 57 183 59 42 0 79 3 82 5 6 7 54 4 61 -4z m-381 -417 c-3 -6 19
-8 60 -5 47 4 65 1 65 -8 0 -8 3 -9 8 -1 10 15 72 16 72 1 0 -8 3 -8 8 -2 10
15 384 15 394 1 5 -8 8 -8 8 1 0 15 70 15 70 0 0 -9 2 -9 8 -1 10 15 100 13
106 -2 5 -14 -4 -54 -13 -55 -3 -1 -36 -2 -72 -3 -37 -1 -73 -7 -80 -13 -11
-9 -14 -51 -13 -197 1 -162 -1 -187 -15 -200 -14 -13 -20 -13 -33 -3 -19 14
-36 63 -19 53 14 -9 10 16 -3 26 -6 4 -5 12 3 21 8 10 9 17 1 22 -7 4 -7 13 1
27 8 16 8 19 -1 13 -9 -6 -9 -3 -1 13 8 15 8 21 -2 25 -9 3 -9 7 1 19 9 11 10
18 2 23 -7 4 -7 13 1 27 8 16 8 19 -1 13 -9 -6 -9 -3 -1 13 8 14 8 21 0 24 -7
2 -7 12 0 31 7 18 7 26 1 22 -6 -3 -10 3 -10 13 0 23 -14 30 -50 27 -14 -1
-28 3 -32 9 -5 7 -8 7 -8 1 0 -6 -32 -10 -81 -9 l-81 1 -24 -39 c-21 -33 -27
-37 -44 -28 -18 10 -24 22 -22 41 2 16 -60 27 -141 25 -48 -1 -91 1 -96 4 -13
9 -21 39 -10 45 5 4 6 11 3 17 -4 6 -3 8 2 5 6 -3 16 -2 24 4 19 11 23 11 15
-1z m125 -154 c0 -5 3 -7 6 -3 3 3 17 -7 31 -24 14 -16 29 -27 34 -23 5 3 9 1
9 -4 0 -5 14 -9 30 -9 17 0 30 5 30 10 0 5 6 7 13 4 7 -2 25 10 39 27 25 30
30 32 90 30 35 -1 66 -2 69 -3 7 -1 7 -131 0 -132 -34 -7 -571 -3 -586 4 -49
25 -58 71 -21 108 23 23 31 24 140 24 65 0 116 -4 116 -9z m736 -6 c11 -9 15
-10 10 -2 -4 6 -3 12 2 12 4 0 16 -16 25 -35 10 -20 12 -35 6 -35 -5 0 -8 -4
-5 -9 3 -5 -2 -19 -13 -32 -16 -20 -28 -23 -97 -24 -52 -1 -83 3 -92 12 -17
16 -17 24 0 34 7 5 8 9 3 9 -6 0 -11 9 -11 20 0 11 4 20 9 20 5 0 4 7 -3 15
-9 11 -9 15 -1 15 7 0 10 4 7 8 -10 16 140 8 160 -8z m-130 -189 c-3 -5 1 -12
10 -15 8 -3 13 -2 10 3 -3 5 5 9 19 9 14 0 22 -4 19 -9 -3 -5 0 -9 6 -9 6 0 8
-4 5 -10 -3 -5 0 -10 7 -11 10 0 10 -2 1 -6 -7 -2 -13 -10 -13 -17 0 -15 -79
-18 -94 -3 -6 7 -11 18 -10 25 1 6 2 17 3 23 0 5 5 8 10 5 5 -3 11 1 15 9 3 8
8 15 11 15 4 0 4 -4 1 -9z m-693 -15 c-3 -5 -1 -6 6 -2 22 14 63 17 55 5 -5
-8 -3 -9 7 -3 19 12 70 12 93 1 12 -6 16 -6 12 2 -6 9 73 10 109 1 6 -1 12 -1
15 0 14 7 138 5 134 -2 -3 -4 0 -8 5 -8 6 0 9 -10 7 -22 -3 -13 -5 -26 -5 -29
-2 -12 -521 -7 -522 5 -3 24 4 51 13 57 17 11 77 6 71 -5z m463 -159 c13 -15
28 -27 34 -27 5 0 10 -4 10 -10 0 -5 7 -7 15 -4 9 4 15 0 15 -7 0 -12 2 -12 9
-1 4 8 11 13 15 13 26 -4 41 3 68 31 27 28 39 33 82 33 68 1 85 -8 82 -45 -2
-34 -42 -94 -57 -85 -5 4 -9 2 -9 -4 0 -6 -144 -9 -390 -9 -319 0 -392 3 -401
14 -6 8 -18 14 -27 14 -8 0 -12 3 -9 7 4 3 2 12 -4 20 -17 19 -19 72 -4 81 8
4 134 7 281 7 l267 -1 23 -27z"/>
<path d="M437 1036 c-15 -12 -16 -18 -6 -39 11 -25 13 -25 40 -11 23 12 27 18
20 37 -10 27 -30 31 -54 13z"/>
<path d="M710 1025 c-5 -13 -2 -25 9 -36 18 -18 47 -18 44 0 -2 6 1 11 5 11 5
0 9 7 9 15 0 8 -7 15 -14 15 -8 0 -12 4 -8 9 3 6 -4 9 -16 8 -12 -1 -25 -11
-29 -22z"/>
<path d="M304 972 c-31 -21 -19 -62 18 -62 27 0 42 35 22 54 -17 18 -24 19
-40 8z"/>
<path d="M576 964 c-22 -21 -4 -54 29 -54 14 0 25 3 26 8 0 4 2 15 4 25 2 9
-5 22 -15 27 -24 13 -26 13 -44 -6z"/>
<path d="M859 964 c-27 -32 14 -68 50 -45 12 8 13 15 4 34 -12 26 -37 31 -54
11z"/>
</g>
</svg>
